<?xml version="1.0" standalone="no"?>
<!DOCTYPE svg PUBLIC "-//W3C//DTD SVG 20010904//EN"
 "http://www.w3.org/TR/2001/REC-SVG-20010904/DTD/svg10.dtd">
<svg version="1.0" xmlns="http://www.w3.org/2000/svg"
 width="1280.000000pt" height="640.000000pt" viewBox="0 0 1280.000000 640.000000"
 preserveAspectRatio="xMidYMid meet">
<g transform="translate(0.000000,640.000000) scale(0.100000,-0.100000)"
fill="#000000" stroke="none">
<path d="M6531 5139 c-179 -120 -424 -227 -701 -308 -58 -16 -213 -55 -345
-86 -426 -100 -571 -143 -775 -232 -509 -223 -892 -572 -1016 -924 -74 -210
-70 -411 11 -576 28 -57 54 -89 132 -163 106 -100 163 -138 263 -172 55 -20
85 -23 200 -23 162 1 241 20 397 95 111 54 113 55 113 40 0 -15 -370 -520
-459 -625 -172 -206 -412 -425 -596 -545 -388 -252 -823 -277 -1122 -64 -193
138 -247 431 -125 684 48 100 176 230 274 278 233 114 502 88 632 -60 25 -28
65 -88 91 -133 25 -44 65 -100 88 -123 l43 -43 13 28 c40 88 14 222 -67 342
-64 94 -214 255 -267 286 -52 31 -158 61 -261 76 -88 12 -217 0 -334 -32 -269
-73 -491 -313 -561 -606 -17 -72 -20 -109 -16 -203 7 -157 28 -227 140 -458
27 -56 198 -211 304 -275 436 -263 883 -282 1325 -55 291 149 545 376 859 768
445 556 947 1280 1586 2285 105 165 234 364 286 442 112 166 159 253 160 301
1 29 -8 42 -60 93 -40 38 -69 59 -85 59 -12 0 -70 -32 -127 -71z m-774 -861
c-4 -12 -323 -537 -547 -900 -56 -93 -107 -168 -112 -168 -5 0 -12 10 -17 23
-5 12 -28 40 -50 62 l-41 39 -63 -60 c-294 -285 -544 -374 -760 -272 -88 42
-109 73 -126 179 -47 290 196 620 604 820 246 120 481 186 990 278 77 14 128
13 122 -1z"/>
<path d="M7113 3575 c-42 -18 -45 -27 -84 -215 -38 -185 -65 -274 -124 -397
-57 -121 -86 -161 -230 -322 -204 -228 -243 -256 -438 -323 -82 -29 -104 -32
-207 -33 -97 0 -122 4 -162 22 -39 18 -48 28 -57 60 -15 54 -14 123 2 123 7 0
30 -9 52 -20 30 -15 59 -20 120 -20 166 0 324 67 445 189 158 160 222 349 162
483 -23 53 -137 182 -193 220 -135 90 -331 43 -539 -129 -120 -100 -195 -182
-276 -304 -125 -188 -169 -311 -169 -479 0 -157 22 -207 141 -315 47 -43 108
-87 141 -103 55 -26 65 -27 213 -27 228 0 387 39 626 154 l120 58 65 -65 c149
-151 213 -182 384 -189 237 -10 455 58 665 209 45 32 85 56 89 53 3 -4 10 -24
16 -45 7 -28 28 -54 77 -98 55 -50 74 -61 115 -67 95 -13 254 26 395 96 43 22
85 39 94 39 9 0 47 -29 85 -64 80 -76 115 -86 237 -66 120 19 226 56 360 125
l123 64 77 -75 c96 -95 148 -129 236 -156 60 -18 85 -20 200 -15 214 9 383 66
571 192 153 103 305 263 305 320 0 14 -24 45 -64 83 -91 87 -91 87 -266 -53
-83 -67 -147 -112 -152 -107 -5 5 -14 43 -19 83 -6 41 -28 143 -50 228 -53
208 -50 281 14 408 15 29 27 58 27 66 0 7 -19 31 -42 54 -33 31 -54 42 -88 47
-65 9 -74 18 -72 65 2 24 -5 60 -17 86 -24 55 -123 161 -157 169 -28 7 -79
-16 -93 -42 -5 -9 -23 -87 -41 -172 -43 -207 -71 -293 -137 -427 -61 -124
-116 -194 -326 -417 -119 -126 -193 -186 -229 -186 -32 0 -55 -39 297 510 134
209 185 304 185 340 0 31 -100 137 -139 147 -44 12 -116 9 -146 -7 -33 -18
-155 -193 -306 -440 -129 -212 -201 -313 -266 -370 -70 -61 -314 -197 -333
-185 -14 9 3 38 209 359 210 326 250 392 274 454 20 49 20 47 -47 124 -43 50
-57 59 -103 69 -80 18 -121 2 -182 -71 -89 -107 -195 -278 -395 -637 -31 -56
-62 -105 -67 -109 -6 -4 -29 12 -51 35 -64 65 -78 61 -246 -74 -79 -64 -147
-113 -151 -110 -5 2 -14 40 -20 83 -6 44 -30 150 -52 238 -50 196 -49 250 5
377 20 46 36 87 36 93 0 5 -19 28 -42 51 -30 28 -55 43 -83 47 -75 13 -75 13
-75 67 0 67 -18 105 -81 175 -73 82 -94 92 -146 69z m-775 -548 c7 -83 -80
-203 -202 -276 -111 -67 -262 -111 -280 -82 -10 15 28 78 113 188 117 151 213
214 321 210 44 -2 45 -2 48 -40z m828 -369 c12 -62 30 -147 39 -188 33 -148
-1 -237 -110 -291 -45 -22 -79 -32 -115 -32 -83 -1 -88 24 -23 110 50 66 58
94 38 136 -9 19 -27 45 -41 58 -33 31 -31 47 17 110 22 30 65 94 96 142 37 58
59 85 66 78 5 -5 20 -60 33 -123z m2683 70 c6 -29 17 -84 26 -123 45 -210 47
-223 35 -281 -21 -100 -121 -175 -236 -176 -79 -2 -83 23 -19 108 58 77 61
119 10 175 -19 22 -35 46 -35 55 0 22 182 294 197 294 6 0 16 -24 22 -52z"/>
</g>
</svg>
